ffmpeg version N-95160-g9fdc2c7bc4 Copyright (c) 2000-2019 the FFmpeg developers
  built with gcc 9.2.1 (GCC) 20190918
  configuration: --enable-gpl --enable-version3 --enable-sdl2 --enable-fontconfig --enable-gnutls --enable-iconv --enable-libass --enable-libdav1d --enable-libbluray --enable-libfreetype --enable-libmp3lame --enable-libopencore-amrnb --enable-libopencore-amrwb --enable-libopenjpeg --enable-libopus --enable-libshine --enable-libsnappy --enable-libsoxr --enable-libtheora --enable-libtwolame --enable-libvpx --enable-libwavpack --enable-libwebp --enable-libx264 --enable-libx265 --enable-libxml2 --enable-libzimg --enable-lzma --enable-zlib --enable-gmp --enable-libvidstab --enable-libvorbis --enable-libvo-amrwbenc --enable-libmysofa --enable-libspeex --enable-libxvid --enable-libaom --enable-libmfx --enable-ffnvcodec --enable-cuvid --enable-d3d11va --enable-nvenc --enable-nvdec --enable-dxva2 --enable-avisynth --enable-libopenmpt --enable-amf
  libavutil      56. 35.100 / 56. 35.100
  libavcodec     58. 59.101 / 58. 59.101
  libavformat    58. 33.100 / 58. 33.100
  libavdevice    58.  9.100 / 58.  9.100
  libavfilter     7. 59.100 /  7. 59.100
  libswscale      5.  6.100 /  5.  6.100
  libswresample   3.  6.100 /  3.  6.100
  libpostproc    55.  6.100 / 55.  6.100
Splitting the commandline.
Reading option '-v' ... matched as option 'v' (set logging level) with argument 'debug'.
Reading option '-nostdin' ... matched as option 'stdin' (enable or disable interaction on standard input) with argument 0.
Reading option '-progress' ... matched as option 'progress' (write program-readable progress information) with argument 'C:/Users/Brandon/AppData/Local/Temp/KritaFFmpegProgress.BkHOfd'.
Reading option '-r' ... matched as option 'r' (set frame rate (Hz value, fraction or abbreviation)) with argument '24'.
Reading option '-start_number' ... matched as AVOption 'start_number' with argument '0'.
Reading option '-i' ... matched as input url with argument 'H:/Personal Repos/DGM2620/frame%04d.png'.
Reading option '-crf' ... matched as AVOption 'crf' with argument '23'.
Reading option '-preset' ... matched as AVOption 'preset' with argument 'medium'.
Reading option '-profile:v' ... matched as option 'profile' (set profile) with argument 'baseline'.
Reading option '-pix_fmt' ... matched as option 'pix_fmt' (set pixel format) with argument 'yuv420p'.
Reading option '-y' ... matched as option 'y' (overwrite output files) with argument '1'.
Reading option 'H:/Personal Repos/DGM2620/Fire.mp4' ... matched as output url.
Finished splitting the commandline.
Parsing a group of options: global .
Applying option v (set logging level) with argument debug.
Applying option nostdin (enable or disable interaction on standard input) with argument 0.
Applying option progress (write program-readable progress information) with argument C:/Users/Brandon/AppData/Local/Temp/KritaFFmpegProgress.BkHOfd.
[file @ 00000277dd7cb300] Setting default whitelist 'file,crypto'
Applying option y (overwrite output files) with argument 1.
Successfully parsed a group of options.
Parsing a group of options: input url H:/Personal Repos/DGM2620/frame%04d.png.
Applying option r (set frame rate (Hz value, fraction or abbreviation)) with argument 24.
Successfully parsed a group of options.
Opening an input file: H:/Personal Repos/DGM2620/frame%04d.png.
[image2 @ 00000277dd80b580] Opening 'H:/Personal Repos/DGM2620/frame0000.png' for reading
[file @ 00000277dd80ed00] Setting default whitelist 'file,crypto'
[AVIOContext @ 00000277dd816e80] Statistics: 312179 bytes read, 0 seeks
[image2 @ 00000277dd80b580] Opening 'H:/Personal Repos/DGM2620/frame0001.png' for reading
[file @ 00000277dd863540] Setting default whitelist 'file,crypto'
[AVIOContext @ 00000277dd863680] Statistics: 312179 bytes read, 0 seeks
[image2 @ 00000277dd80b580] Opening 'H:/Personal Repos/DGM2620/frame0002.png' for reading
[file @ 00000277dd8635c0] Setting default whitelist 'file,crypto'
[AVIOContext @ 00000277dd879440] Statistics: 333440 bytes read, 0 seeks
[image2 @ 00000277dd80b580] Opening 'H:/Personal Repos/DGM2620/frame0003.png' for reading
[file @ 00000277dd879600] Setting default whitelist 'file,crypto'
[AVIOContext @ 00000277dd879440] Statistics: 346906 bytes read, 0 seeks
[image2 @ 00000277dd80b580] Opening 'H:/Personal Repos/DGM2620/frame0004.png' for reading
[file @ 00000277dd879600] Setting default whitelist 'file,crypto'
[AVIOContext @ 00000277dd879440] Statistics: 351296 bytes read, 0 seeks
[image2 @ 00000277dd80b580] Opening 'H:/Personal Repos/DGM2620/frame0005.png' for reading
[file @ 00000277dd879940] Setting default whitelist 'file,crypto'
[AVIOContext @ 00000277dd879440] Statistics: 360883 bytes read, 0 seeks
[image2 @ 00000277dd80b580] Opening 'H:/Personal Repos/DGM2620/frame0006.png' for reading
[file @ 00000277dd879b00] Setting default whitelist 'file,crypto'
[AVIOContext @ 00000277dd879440] Statistics: 370553 bytes read, 0 seeks
[image2 @ 00000277dd80b580] Opening 'H:/Personal Repos/DGM2620/frame0007.png' for reading
[file @ 00000277dd879cc0] Setting default whitelist 'file,crypto'
[AVIOContext @ 00000277dd879440] Statistics: 389110 bytes read, 0 seeks
[image2 @ 00000277dd80b580] Opening 'H:/Personal Repos/DGM2620/frame0008.png' for reading
[file @ 00000277dd879e80] Setting default whitelist 'file,crypto'
[AVIOContext @ 00000277dd879440] Statistics: 419461 bytes read, 0 seeks
[image2 @ 00000277dd80b580] Opening 'H:/Personal Repos/DGM2620/frame0009.png' for reading
[file @ 00000277dd816d40] Setting default whitelist 'file,crypto'
[AVIOContext @ 00000277dd879440] Statistics: 443340 bytes read, 0 seeks
[image2 @ 00000277dd80b580] Opening 'H:/Personal Repos/DGM2620/frame0010.png' for reading
[file @ 00000277dd816d40] Setting default whitelist 'file,crypto'
[AVIOContext @ 00000277dd879440] Statistics: 443340 bytes read, 0 seeks
[image2 @ 00000277dd80b580] Opening 'H:/Personal Repos/DGM2620/frame0011.png' for reading
[file @ 00000277dd816e00] Setting default whitelist 'file,crypto'
[AVIOContext @ 00000277dd879440] Statistics: 485218 bytes read, 0 seeks
[image2 @ 00000277dd80b580] Opening 'H:/Personal Repos/DGM2620/frame0012.png' for reading
[file @ 00000277dd816e00] Setting default whitelist 'file,crypto'
[AVIOContext @ 00000277dd879440] Statistics: 485218 bytes read, 0 seeks
[image2 @ 00000277dd80b580] Probe buffer size limit of 5000000 bytes reached
Input #0, image2, from 'H:/Personal Repos/DGM2620/frame%04d.png':
  Duration: 00:00:03.04, start: 0.000000, bitrate: N/A
    Stream #0:0, 13, 1/25: Video: png, 1 reference frame, rgba(pc), 4960x3508 [SAR 11811:11811 DAR 1240:877], 0/1, 25 fps, 25 tbr, 25 tbn, 25 tbc
Successfully opened the file.
Parsing a group of options: output url H:/Personal Repos/DGM2620/Fire.mp4.
Applying option profile:v (set profile) with argument baseline.
Applying option pix_fmt (set pixel format) with argument yuv420p.
Successfully parsed a group of options.
Opening an output file: H:/Personal Repos/DGM2620/Fire.mp4.
[file @ 00000277e204c840] Setting default whitelist 'file,crypto'
Successfully opened the file.
detected 8 logical cores
Stream mapping:
  Stream #0:0 -> #0:0 (png (native) -> h264 (libx264))
cur_dts is invalid st:0 (0) [init:0 i_done:0 finish:0] (this is harmless if it occurs once at the start per stream)
    Last message repeated 8 times
[graph 0 input from stream 0:0 @ 00000277dd879c40] Setting 'video_size' to value '4960x3508'
[graph 0 input from stream 0:0 @ 00000277dd879c40] Setting 'pix_fmt' to value '26'
[graph 0 input from stream 0:0 @ 00000277dd879c40] Setting 'time_base' to value '1/24'
[graph 0 input from stream 0:0 @ 00000277dd879c40] Setting 'pixel_aspect' to value '11811/11811'
[graph 0 input from stream 0:0 @ 00000277dd879c40] Setting 'sws_param' to value 'flags=2'
[graph 0 input from stream 0:0 @ 00000277dd879c40] Setting 'frame_rate' to value '24/1'
[graph 0 input from stream 0:0 @ 00000277dd879c40] w:4960 h:3508 pixfmt:rgba tb:1/24 fr:24/1 sar:11811/11811 sws_param:flags=2
[format @ 00000277dd811800] Setting 'pix_fmts' to value 'yuv420p'
[auto_scaler_0 @ 00000277e231f500] Setting 'flags' to value 'bicubic'
[auto_scaler_0 @ 00000277e231f500] w:iw h:ih flags:'bicubic' interl:0
[format @ 00000277dd811800] auto-inserting filter 'auto_scaler_0' between the filter 'Parsed_null_0' and the filter 'format'
[AVFilterGraph @ 00000277dd810240] query_formats: 4 queried, 2 merged, 1 already done, 0 delayed
[auto_scaler_0 @ 00000277e231f500] w:4960 h:3508 fmt:rgba sar:11811/11811 -> w:4960 h:3508 fmt:yuv420p sar:1/1 flags:0x4
[libx264 @ 00000277e204b7c0] using mv_range_thread = 136
[libx264 @ 00000277e204b7c0] using SAR=1/1
[libx264 @ 00000277e204b7c0] using cpu capabilities: MMX2 SSE2Fast SSSE3 SSE4.2 AVX FMA3 BMI2 AVX2
[libx264 @ 00000277e204b7c0] profile Constrained Baseline, level 6.0, 4:2:0, 8-bit
[libx264 @ 00000277e204b7c0] 264 - core 158 r2984 3759fcb - H.264/MPEG-4 AVC codec - Copyleft 2003-2019 - http://www.videolan.org/x264.html - options: cabac=0 ref=3 deblock=1:0:0 analyse=0x1:0x111 me=hex subme=7 psy=1 psy_rd=1.00:0.00 mixed_ref=1 me_range=16 chroma_me=1 trellis=1 8x8dct=0 cqm=0 deadzone=21,11 fast_pskip=1 chroma_qp_offset=-2 threads=12 lookahead_threads=2 sliced_threads=0 nr=0 decimate=1 interlaced=0 bluray_compat=0 constrained_intra=0 bframes=0 weightp=0 keyint=250 keyint_min=24 scenecut=40 intra_refresh=0 rc_lookahead=40 rc=crf mbtree=1 crf=23.0 qcomp=0.60 qpmin=0 qpmax=69 qpstep=4 ip_ratio=1.40 aq=1:1.00
Output #0, mp4, to 'H:/Personal Repos/DGM2620/Fire.mp4':
  Metadata:
    encoder         : Lavf58.33.100
    Stream #0:0, 0, 1/12288: Video: h264 (libx264), 1 reference frame (avc1 / 0x31637661), yuv420p, 4960x3508 [SAR 1:1 DAR 1240:877], 0/1, q=-1--1, 24 fps, 12288 tbn, 24 tbc
    Metadata:
      encoder         : Lavc58.59.101 libx264
    Side data:
      cpb: bitrate max/min/avg: 0/0/0 buffer size: 0 vbv_delay: N/A
Clipping frame in rate conversion by 0.000008
cur_dts is invalid st:0 (0) [init:1 i_done:0 finish:0] (this is harmless if it occurs once at the start per stream)
frame=    2 fps=0.0 q=0.0 size=       0kB time=00:00:00.00 bitrate=N/A speed=   0x    cur_dts is invalid st:0 (0) [init:1 i_done:0 finish:0] (this is harmless if it occurs once at the start per stream)
    Last message repeated 3 times
[image2 @ 00000277dd80b580] Opening 'H:/Personal Repos/DGM2620/frame0013.png' for reading
[file @ 00000277dd8636c0] Setting default whitelist 'file,crypto'
[AVIOContext @ 00000277dd869280] Statistics: 521524 bytes read, 0 seeks
cur_dts is invalid st:0 (0) [init:1 i_done:0 finish:0] (this is harmless if it occurs once at the start per stream)
[image2 @ 00000277dd80b580] Opening 'H:/Personal Repos/DGM2620/frame0014.png' for reading
[file @ 00000277dd8636c0] Setting default whitelist 'file,crypto'
[AVIOContext @ 00000277dd869280] Statistics: 521524 bytes read, 0 seeks
cur_dts is invalid st:0 (0) [init:1 i_done:0 finish:0] (this is harmless if it occurs once at the start per stream)
[image2 @ 00000277dd80b580] Opening 'H:/Personal Repos/DGM2620/frame0015.png' for reading
[file @ 00000277dd8636c0] Setting default whitelist 'file,crypto'
[AVIOContext @ 00000277dd869280] Statistics: 493592 bytes read, 0 seeks
frame=    8 fps=7.4 q=0.0 size=       0kB time=00:00:00.00 bitrate=N/A speed=   0x    cur_dts is invalid st:0 (0) [init:1 i_done:0 finish:0] (this is harmless if it occurs once at the start per stream)
[image2 @ 00000277dd80b580] Opening 'H:/Personal Repos/DGM2620/frame0016.png' for reading
[file @ 00000277dd8636c0] Setting default whitelist 'file,crypto'
[AVIOContext @ 00000277dd869280] Statistics: 493592 bytes read, 0 seeks
cur_dts is invalid st:0 (0) [init:1 i_done:0 finish:0] (this is harmless if it occurs once at the start per stream)
[image2 @ 00000277dd80b580] Opening 'H:/Personal Repos/DGM2620/frame0017.png' for reading
[file @ 00000277dd8636c0] Setting default whitelist 'file,crypto'
[AVIOContext @ 00000277dd869280] Statistics: 507637 bytes read, 0 seeks
cur_dts is invalid st:0 (0) [init:1 i_done:0 finish:0] (this is harmless if it occurs once at the start per stream)
[image2 @ 00000277dd80b580] Opening 'H:/Personal Repos/DGM2620/frame0018.png' for reading
[file @ 00000277dd8636c0] Setting default whitelist 'file,crypto'
[AVIOContext @ 00000277dd869280] Statistics: 507637 bytes read, 0 seeks
cur_dts is invalid st:0 (0) [init:1 i_done:0 finish:0] (this is harmless if it occurs once at the start per stream)
[image2 @ 00000277dd80b580] Opening 'H:/Personal Repos/DGM2620/frame0019.png' for reading
[file @ 00000277dd8636c0] Setting default whitelist 'file,crypto'
[AVIOContext @ 00000277dd869280] Statistics: 487100 bytes read, 0 seeks
cur_dts is invalid st:0 (0) [init:1 i_done:0 finish:0] (this is harmless if it occurs once at the start per stream)
[image2 @ 00000277dd80b580] Opening 'H:/Personal Repos/DGM2620/frame0020.png' for reading
[file @ 00000277dd8636c0] Setting default whitelist 'file,crypto'
[AVIOContext @ 00000277dd869280] Statistics: 487100 bytes read, 0 seeks
cur_dts is invalid st:0 (0) [init:1 i_done:0 finish:0] (this is harmless if it occurs once at the start per stream)
[image2 @ 00000277dd80b580] Opening 'H:/Personal Repos/DGM2620/frame0021.png' for reading
[file @ 00000277dd8636c0] Setting default whitelist 'file,crypto'
[AVIOContext @ 00000277dd869280] Statistics: 426012 bytes read, 0 seeks
frame=   14 fps=8.6 q=0.0 size=       0kB time=00:00:00.00 bitrate=N/A speed=   0x    cur_dts is invalid st:0 (0) [init:1 i_done:0 finish:0] (this is harmless if it occurs once at the start per stream)
[image2 @ 00000277dd80b580] Opening 'H:/Personal Repos/DGM2620/frame0022.png' for reading
[file @ 00000277dd8636c0] Setting default whitelist 'file,crypto'
[AVIOContext @ 00000277e234e180] Statistics: 426012 bytes read, 0 seeks
cur_dts is invalid st:0 (0) [init:1 i_done:0 finish:0] (this is harmless if it occurs once at the start per stream)
[image2 @ 00000277dd80b580] Opening 'H:/Personal Repos/DGM2620/frame0023.png' for reading
[file @ 00000277dd8636c0] Setting default whitelist 'file,crypto'
[AVIOContext @ 00000277e234e180] Statistics: 403948 bytes read, 0 seeks
cur_dts is invalid st:0 (0) [init:1 i_done:0 finish:0] (this is harmless if it occurs once at the start per stream)
[image2 @ 00000277dd80b580] Opening 'H:/Personal Repos/DGM2620/frame0024.png' for reading
[file @ 00000277dd8636c0] Setting default whitelist 'file,crypto'
[AVIOContext @ 00000277e234e180] Statistics: 403948 bytes read, 0 seeks
cur_dts is invalid st:0 (0) [init:1 i_done:0 finish:0] (this is harmless if it occurs once at the start per stream)
[image2 @ 00000277dd80b580] Opening 'H:/Personal Repos/DGM2620/frame0025.png' for reading
[file @ 00000277dd8636c0] Setting default whitelist 'file,crypto'
[AVIOContext @ 00000277e234e180] Statistics: 414991 bytes read, 0 seeks
cur_dts is invalid st:0 (0) [init:1 i_done:0 finish:0] (this is harmless if it occurs once at the start per stream)
[image2 @ 00000277dd80b580] Opening 'H:/Personal Repos/DGM2620/frame0026.png' for reading
[file @ 00000277dd8636c0] Setting default whitelist 'file,crypto'
[AVIOContext @ 00000277e234e180] Statistics: 414991 bytes read, 0 seeks
cur_dts is invalid st:0 (0) [init:1 i_done:0 finish:0] (this is harmless if it occurs once at the start per stream)
[image2 @ 00000277dd80b580] Opening 'H:/Personal Repos/DGM2620/frame0027.png' for reading
[file @ 00000277dd8636c0] Setting default whitelist 'file,crypto'
[AVIOContext @ 00000277e234e180] Statistics: 416293 bytes read, 0 seeks
frame=   20 fps=9.2 q=0.0 size=       0kB time=00:00:00.00 bitrate=N/A speed=   0x    cur_dts is invalid st:0 (0) [init:1 i_done:0 finish:0] (this is harmless if it occurs once at the start per stream)
[image2 @ 00000277dd80b580] Opening 'H:/Personal Repos/DGM2620/frame0028.png' for reading
[file @ 00000277dd8636c0] Setting default whitelist 'file,crypto'
[AVIOContext @ 00000277e234e180] Statistics: 416293 bytes read, 0 seeks
cur_dts is invalid st:0 (0) [init:1 i_done:0 finish:0] (this is harmless if it occurs once at the start per stream)
[image2 @ 00000277dd80b580] Opening 'H:/Personal Repos/DGM2620/frame0029.png' for reading
[file @ 00000277dd8636c0] Setting default whitelist 'file,crypto'
[AVIOContext @ 00000277e234e180] Statistics: 409259 bytes read, 0 seeks
cur_dts is invalid st:0 (0) [init:1 i_done:0 finish:0] (this is harmless if it occurs once at the start per stream)
[image2 @ 00000277dd80b580] Opening 'H:/Personal Repos/DGM2620/frame0030.png' for reading
[file @ 00000277dd8636c0] Setting default whitelist 'file,crypto'
[AVIOContext @ 00000277e234e180] Statistics: 409259 bytes read, 0 seeks
cur_dts is invalid st:0 (0) [init:1 i_done:0 finish:0] (this is harmless if it occurs once at the start per stream)
[image2 @ 00000277dd80b580] Opening 'H:/Personal Repos/DGM2620/frame0031.png' for reading
[file @ 00000277dd8636c0] Setting default whitelist 'file,crypto'
[AVIOContext @ 00000277e234e180] Statistics: 404582 bytes read, 0 seeks
cur_dts is invalid st:0 (0) [init:1 i_done:0 finish:0] (this is harmless if it occurs once at the start per stream)
[image2 @ 00000277dd80b580] Opening 'H:/Personal Repos/DGM2620/frame0032.png' for reading
[file @ 00000277dd8636c0] Setting default whitelist 'file,crypto'
[AVIOContext @ 00000277e234e180] Statistics: 404582 bytes read, 0 seeks
cur_dts is invalid st:0 (0) [init:1 i_done:0 finish:0] (this is harmless if it occurs once at the start per stream)
[image2 @ 00000277dd80b580] Opening 'H:/Personal Repos/DGM2620/frame0033.png' for reading
[file @ 00000277dd8636c0] Setting default whitelist 'file,crypto'
[AVIOContext @ 00000277e234e180] Statistics: 407271 bytes read, 0 seeks
frame=   26 fps=9.5 q=0.0 size=       0kB time=00:00:00.00 bitrate=N/A speed=   0x    cur_dts is invalid st:0 (0) [init:1 i_done:0 finish:0] (this is harmless if it occurs once at the start per stream)
[image2 @ 00000277dd80b580] Opening 'H:/Personal Repos/DGM2620/frame0034.png' for reading
[file @ 00000277dd8636c0] Setting default whitelist 'file,crypto'
[AVIOContext @ 00000277e234e180] Statistics: 407271 bytes read, 0 seeks
cur_dts is invalid st:0 (0) [init:1 i_done:0 finish:0] (this is harmless if it occurs once at the start per stream)
[image2 @ 00000277dd80b580] Opening 'H:/Personal Repos/DGM2620/frame0035.png' for reading
[file @ 00000277dd8636c0] Setting default whitelist 'file,crypto'
[AVIOContext @ 00000277e234e180] Statistics: 418203 bytes read, 0 seeks
cur_dts is invalid st:0 (0) [init:1 i_done:0 finish:0] (this is harmless if it occurs once at the start per stream)
[image2 @ 00000277dd80b580] Opening 'H:/Personal Repos/DGM2620/frame0036.png' for reading
[file @ 00000277dd8636c0] Setting default whitelist 'file,crypto'
[AVIOContext @ 00000277e234e180] Statistics: 418203 bytes read, 0 seeks
cur_dts is invalid st:0 (0) [init:1 i_done:0 finish:0] (this is harmless if it occurs once at the start per stream)
[image2 @ 00000277dd80b580] Opening 'H:/Personal Repos/DGM2620/frame0037.png' for reading
[file @ 00000277dd8636c0] Setting default whitelist 'file,crypto'
[AVIOContext @ 00000277e234e180] Statistics: 425778 bytes read, 0 seeks
cur_dts is invalid st:0 (0) [init:1 i_done:0 finish:0] (this is harmless if it occurs once at the start per stream)
[image2 @ 00000277dd80b580] Opening 'H:/Personal Repos/DGM2620/frame0038.png' for reading
[file @ 00000277dd8636c0] Setting default whitelist 'file,crypto'
[AVIOContext @ 00000277e234e180] Statistics: 425778 bytes read, 0 seeks
cur_dts is invalid st:0 (0) [init:1 i_done:0 finish:0] (this is harmless if it occurs once at the start per stream)
[image2 @ 00000277dd80b580] Opening 'H:/Personal Repos/DGM2620/frame0039.png' for reading
[file @ 00000277dd8636c0] Setting default whitelist 'file,crypto'
[AVIOContext @ 00000277e234e180] Statistics: 411926 bytes read, 0 seeks
cur_dts is invalid st:0 (0) [init:1 i_done:0 finish:0] (this is harmless if it occurs once at the start per stream)
[image2 @ 00000277dd80b580] Opening 'H:/Personal Repos/DGM2620/frame0040.png' for reading
[file @ 00000277dd8636c0] Setting default whitelist 'file,crypto'
[AVIOContext @ 00000277e234e180] Statistics: 411926 bytes read, 0 seeks
frame=   33 fps=9.9 q=0.0 size=       0kB time=00:00:00.00 bitrate=N/A speed=   0x    cur_dts is invalid st:0 (0) [init:1 i_done:0 finish:0] (this is harmless if it occurs once at the start per stream)
[image2 @ 00000277dd80b580] Opening 'H:/Personal Repos/DGM2620/frame0041.png' for reading
[file @ 00000277dd8636c0] Setting default whitelist 'file,crypto'
[AVIOContext @ 00000277e234e180] Statistics: 423730 bytes read, 0 seeks
cur_dts is invalid st:0 (0) [init:1 i_done:0 finish:0] (this is harmless if it occurs once at the start per stream)
[image2 @ 00000277dd80b580] Opening 'H:/Personal Repos/DGM2620/frame0042.png' for reading
[file @ 00000277dd8636c0] Setting default whitelist 'file,crypto'
[AVIOContext @ 00000277e234e180] Statistics: 423730 bytes read, 0 seeks
cur_dts is invalid st:0 (0) [init:1 i_done:0 finish:0] (this is harmless if it occurs once at the start per stream)
[image2 @ 00000277dd80b580] Opening 'H:/Personal Repos/DGM2620/frame0043.png' for reading
[file @ 00000277dd8636c0] Setting default whitelist 'file,crypto'
[AVIOContext @ 00000277e234e180] Statistics: 413961 bytes read, 0 seeks
cur_dts is invalid st:0 (0) [init:1 i_done:0 finish:0] (this is harmless if it occurs once at the start per stream)
[image2 @ 00000277dd80b580] Opening 'H:/Personal Repos/DGM2620/frame0044.png' for reading
[file @ 00000277dd8636c0] Setting default whitelist 'file,crypto'
[AVIOContext @ 00000277e234e180] Statistics: 413961 bytes read, 0 seeks
cur_dts is invalid st:0 (0) [init:1 i_done:0 finish:0] (this is harmless if it occurs once at the start per stream)
[image2 @ 00000277dd80b580] Opening 'H:/Personal Repos/DGM2620/frame0045.png' for reading
[file @ 00000277dd8636c0] Setting default whitelist 'file,crypto'
[AVIOContext @ 00000277e234e180] Statistics: 401356 bytes read, 0 seeks
cur_dts is invalid st:0 (0) [init:1 i_done:0 finish:0] (this is harmless if it occurs once at the start per stream)
[image2 @ 00000277dd80b580] Opening 'H:/Personal Repos/DGM2620/frame0046.png' for reading
[file @ 00000277dd8636c0] Setting default whitelist 'file,crypto'
[AVIOContext @ 00000277e234e180] Statistics: 401356 bytes read, 0 seeks
frame=   39 fps= 10 q=0.0 size=       0kB time=00:00:00.00 bitrate=N/A speed=   0x    cur_dts is invalid st:0 (0) [init:1 i_done:0 finish:0] (this is harmless if it occurs once at the start per stream)
[image2 @ 00000277dd80b580] Opening 'H:/Personal Repos/DGM2620/frame0047.png' for reading
[file @ 00000277dd8636c0] Setting default whitelist 'file,crypto'
[AVIOContext @ 00000277e234e180] Statistics: 399138 bytes read, 0 seeks
cur_dts is invalid st:0 (0) [init:1 i_done:0 finish:0] (this is harmless if it occurs once at the start per stream)
[image2 @ 00000277dd80b580] Opening 'H:/Personal Repos/DGM2620/frame0048.png' for reading
[file @ 00000277dd8636c0] Setting default whitelist 'file,crypto'
[AVIOContext @ 00000277e234e180] Statistics: 399138 bytes read, 0 seeks
cur_dts is invalid st:0 (0) [init:1 i_done:0 finish:0] (this is harmless if it occurs once at the start per stream)
[image2 @ 00000277dd80b580] Opening 'H:/Personal Repos/DGM2620/frame0049.png' for reading
[file @ 00000277dd8636c0] Setting default whitelist 'file,crypto'
[AVIOContext @ 00000277e234e180] Statistics: 395898 bytes read, 0 seeks
cur_dts is invalid st:0 (0) [init:1 i_done:0 finish:0] (this is harmless if it occurs once at the start per stream)
[image2 @ 00000277dd80b580] Opening 'H:/Personal Repos/DGM2620/frame0050.png' for reading
[file @ 00000277dd8636c0] Setting default whitelist 'file,crypto'
[AVIOContext @ 00000277e234e180] Statistics: 395898 bytes read, 0 seeks
cur_dts is invalid st:0 (0) [init:1 i_done:0 finish:0] (this is harmless if it occurs once at the start per stream)
[image2 @ 00000277dd80b580] Opening 'H:/Personal Repos/DGM2620/frame0051.png' for reading
[file @ 00000277dd8636c0] Setting default whitelist 'file,crypto'
[AVIOContext @ 00000277e234e180] Statistics: 402632 bytes read, 0 seeks
frame=   44 fps=9.2 q=0.0 size=       0kB time=00:00:00.00 bitrate=N/A speed=   0x    cur_dts is invalid st:0 (0) [init:1 i_done:0 finish:0] (this is harmless if it occurs once at the start per stream)
[image2 @ 00000277dd80b580] Opening 'H:/Personal Repos/DGM2620/frame0052.png' for reading
[file @ 00000277dd8636c0] Setting default whitelist 'file,crypto'
[AVIOContext @ 00000277e234e180] Statistics: 402632 bytes read, 0 seeks
cur_dts is invalid st:0 (0) [init:1 i_done:0 finish:0] (this is harmless if it occurs once at the start per stream)
[image2 @ 00000277dd80b580] Opening 'H:/Personal Repos/DGM2620/frame0053.png' for reading
[file @ 00000277dd8636c0] Setting default whitelist 'file,crypto'
[AVIOContext @ 00000277e234e180] Statistics: 416390 bytes read, 0 seeks
cur_dts is invalid st:0 (0) [init:1 i_done:0 finish:0] (this is harmless if it occurs once at the start per stream)
[image2 @ 00000277dd80b580] Opening 'H:/Personal Repos/DGM2620/frame0054.png' for reading
[file @ 00000277dd8636c0] Setting default whitelist 'file,crypto'
[AVIOContext @ 00000277e234e180] Statistics: 416390 bytes read, 0 seeks
cur_dts is invalid st:0 (0) [init:1 i_done:0 finish:0] (this is harmless if it occurs once at the start per stream)
[image2 @ 00000277dd80b580] Opening 'H:/Personal Repos/DGM2620/frame0055.png' for reading
[file @ 00000277dd8636c0] Setting default whitelist 'file,crypto'
[AVIOContext @ 00000277e234e180] Statistics: 426143 bytes read, 0 seeks
cur_dts is invalid st:0 (0) [init:1 i_done:0 finish:0] (this is harmless if it occurs once at the start per stream)
[image2 @ 00000277dd80b580] Opening 'H:/Personal Repos/DGM2620/frame0056.png' for reading
[file @ 00000277dd8636c0] Setting default whitelist 'file,crypto'
[AVIOContext @ 00000277e234e180] Statistics: 426143 bytes read, 0 seeks
cur_dts is invalid st:0 (0) [init:1 i_done:0 finish:0] (this is harmless if it occurs once at the start per stream)
[image2 @ 00000277dd80b580] Opening 'H:/Personal Repos/DGM2620/frame0057.png' for reading
[file @ 00000277dd8636c0] Setting default whitelist 'file,crypto'
[AVIOContext @ 00000277e234e180] Statistics: 367622 bytes read, 0 seeks
frame=   50 fps=9.3 q=0.0 size=       0kB time=00:00:00.00 bitrate=N/A speed=   0x    cur_dts is invalid st:0 (0) [init:1 i_done:0 finish:0] (this is harmless if it occurs once at the start per stream)
[image2 @ 00000277dd80b580] Opening 'H:/Personal Repos/DGM2620/frame0058.png' for reading
[file @ 00000277dd8636c0] Setting default whitelist 'file,crypto'
[AVIOContext @ 00000277e234e180] Statistics: 367622 bytes read, 0 seeks
cur_dts is invalid st:0 (0) [init:1 i_done:0 finish:0] (this is harmless if it occurs once at the start per stream)
[image2 @ 00000277dd80b580] Opening 'H:/Personal Repos/DGM2620/frame0059.png' for reading
[file @ 00000277dd8636c0] Setting default whitelist 'file,crypto'
[AVIOContext @ 00000277e234e180] Statistics: 367622 bytes read, 0 seeks
cur_dts is invalid st:0 (0) [init:1 i_done:0 finish:0] (this is harmless if it occurs once at the start per stream)
[image2 @ 00000277dd80b580] Opening 'H:/Personal Repos/DGM2620/frame0060.png' for reading
[file @ 00000277dd8636c0] Setting default whitelist 'file,crypto'
[AVIOContext @ 00000277e234e180] Statistics: 345964 bytes read, 0 seeks
cur_dts is invalid st:0 (0) [init:1 i_done:0 finish:0] (this is harmless if it occurs once at the start per stream)
[image2 @ 00000277dd80b580] Opening 'H:/Personal Repos/DGM2620/frame0061.png' for reading
[file @ 00000277dd8636c0] Setting default whitelist 'file,crypto'
[AVIOContext @ 00000277e234e180] Statistics: 342192 bytes read, 0 seeks
[libx264 @ 00000277e204b7c0] frame=   0 QP=10.22 NAL=3 Slice:I Poc:0   I:68200 P:0    SKIP:0    size=51242 bytes
[image2 @ 00000277dd80b580] Opening 'H:/Personal Repos/DGM2620/frame0062.png' for reading
[file @ 00000277dd8636c0] Setting default whitelist 'file,crypto'
[AVIOContext @ 00000277e234e180] Statistics: 340338 bytes read, 0 seeks
[libx264 @ 00000277e204b7c0] frame=   1 QP=11.00 NAL=2 Slice:P Poc:2   I:0    P:0    SKIP:68200 size=13 bytes
frame=   55 fps=9.3 q=28.0 size=       0kB time=00:00:00.04 bitrate=   9.2kbits/s speed=0.00706x    [image2 @ 00000277dd80b580] Opening 'H:/Personal Repos/DGM2620/frame0063.png' for reading
[file @ 00000277dd8636c0] Setting default whitelist 'file,crypto'
[AVIOContext @ 00000277e234e180] Statistics: 352985 bytes read, 0 seeks
[libx264 @ 00000277e204b7c0] frame=   2 QP=15.23 NAL=2 Slice:P Poc:4   I:159  P:3    SKIP:68038 size=3464 bytes
[image2 @ 00000277dd80b580] Opening 'H:/Personal Repos/DGM2620/frame0064.png' for reading
[file @ 00000277dd8636c0] Setting default whitelist 'file,crypto'
[AVIOContext @ 00000277e234e180] Statistics: 331234 bytes read, 0 seeks
[libx264 @ 00000277e204b7c0] frame=   3 QP=15.25 NAL=2 Slice:P Poc:6   I:197  P:133  SKIP:67870 size=4533 bytes
[image2 @ 00000277dd80b580] Opening 'H:/Personal Repos/DGM2620/frame0065.png' for reading
[file @ 00000277dd8636c0] Setting default whitelist 'file,crypto'
[AVIOContext @ 00000277e234e180] Statistics: 330033 bytes read, 0 seeks
[libx264 @ 00000277e204b7c0] frame=   4 QP=17.56 NAL=2 Slice:P Poc:8   I:211  P:238  SKIP:67751 size=4648 bytes
[image2 @ 00000277dd80b580] Opening 'H:/Personal Repos/DGM2620/frame0066.png' for reading
[file @ 00000277dd8636c0] Setting default whitelist 'file,crypto'
[AVIOContext @ 00000277e234e180] Statistics: 352549 bytes read, 0 seeks
[libx264 @ 00000277e204b7c0] frame=   5 QP=16.80 NAL=2 Slice:P Poc:10  I:593  P:197  SKIP:67410 size=7763 bytes
[image2 @ 00000277dd80b580] Opening 'H:/Personal Repos/DGM2620/frame0067.png' for reading
[file @ 00000277dd8636c0] Setting default whitelist 'file,crypto'
[AVIOContext @ 00000277e234e180] Statistics: 330126 bytes read, 0 seeks
[libx264 @ 00000277e204b7c0] frame=   6 QP=19.59 NAL=2 Slice:P Poc:12  I:631  P:335  SKIP:67234 size=8192 bytes
[image2 @ 00000277dd80b580] Opening 'H:/Personal Repos/DGM2620/frame0068.png' for reading
[file @ 00000277dd8636c0] Setting default whitelist 'file,crypto'
[AVIOContext @ 00000277e234e180] Statistics: 328304 bytes read, 0 seeks
[libx264 @ 00000277e204b7c0] frame=   7 QP=19.09 NAL=2 Slice:P Poc:14  I:794  P:354  SKIP:67052 size=11987 bytes
frame=   61 fps=9.4 q=28.0 size=       0kB time=00:00:00.29 bitrate=   1.3kbits/s speed=0.0449x    [image2 @ 00000277dd80b580] Opening 'H:/Personal Repos/DGM2620/frame0069.png' for reading
[file @ 00000277dd8636c0] Setting default whitelist 'file,crypto'
[AVIOContext @ 00000277e234e180] Statistics: 333166 bytes read, 0 seeks
[libx264 @ 00000277e204b7c0] frame=   8 QP=22.42 NAL=2 Slice:P Poc:16  I:1350 P:516  SKIP:66334 size=17015 bytes
[image2 @ 00000277dd80b580] Opening 'H:/Personal Repos/DGM2620/frame0070.png' for reading
[file @ 00000277dd8636c0] Setting default whitelist 'file,crypto'
[AVIOContext @ 00000277e234e180] Statistics: 333166 bytes read, 0 seeks
[libx264 @ 00000277e204b7c0] frame=   9 QP=22.10 NAL=2 Slice:P Poc:18  I:2382 P:474  SKIP:65344 size=24385 bytes
[image2 @ 00000277dd80b580] Opening 'H:/Personal Repos/DGM2620/frame0071.png' for reading
[file @ 00000277dd8636c0] Setting default whitelist 'file,crypto'
[AVIOContext @ 00000277e234e180] Statistics: 333166 bytes read, 0 seeks
[libx264 @ 00000277e204b7c0] frame=  10 QP=8.01 NAL=2 Slice:P Poc:20  I:135  P:106  SKIP:67959 size=663 bytes
[image2 @ 00000277dd80b580] Opening 'H:/Personal Repos/DGM2620/frame0072.png' for reading
[file @ 00000277dd8636c0] Setting default whitelist 'file,crypto'
[AVIOContext @ 00000277e234e180] Statistics: 312179 bytes read, 0 seeks
[libx264 @ 00000277e204b7c0] frame=  11 QP=21.09 NAL=2 Slice:P Poc:22  I:2759 P:519  SKIP:64922 size=32144 bytes
[image2 @ 00000277dd80b580] Opening 'H:/Personal Repos/DGM2620/frame0073.png' for reading
[file @ 00000277dd8636c0] Setting default whitelist 'file,crypto'
[AVIOContext @ 00000277e234e180] Statistics: 312179 bytes read, 0 seeks
[libx264 @ 00000277e204b7c0] frame=  12 QP=7.17 NAL=2 Slice:P Poc:24  I:198  P:165  SKIP:67837 size=947 bytes
frame=   66 fps=9.4 q=28.0 size=       0kB time=00:00:00.50 bitrate=   0.8kbits/s speed=0.0715x    [image2 @ 00000277dd80b580] Opening 'H:/Personal Repos/DGM2620/frame0074.png' for reading
[file @ 00000277dd8636c0] Setting default whitelist 'file,crypto'
[AVIOContext @ 00000277e234e180] Statistics: 312179 bytes read, 0 seeks
[libx264 @ 00000277e204b7c0] frame=  13 QP=22.03 NAL=2 Slice:P Poc:26  I:2834 P:685  SKIP:64681 size=35894 bytes
[image2 @ 00000277dd80b580] Opening 'H:/Personal Repos/DGM2620/frame0075.png' for reading
[file @ 00000277dd8636c0] Setting default whitelist 'file,crypto'
[AVIOContext @ 00000277e234e180] Statistics: 312179 bytes read, 0 seeks
[libx264 @ 00000277e204b7c0] frame=  14 QP=8.93 NAL=2 Slice:P Poc:28  I:152  P:172  SKIP:67876 size=877 bytes
[libx264 @ 00000277e204b7c0] frame=  15 QP=20.48 NAL=2 Slice:P Poc:30  I:2962 P:778  SKIP:64460 size=32023 bytes
[libx264 @ 00000277e204b7c0] frame=  16 QP=4.04 NAL=2 Slice:P Poc:32  I:170  P:132  SKIP:67898 size=800 bytes
[libx264 @ 00000277e204b7c0] frame=  17 QP=20.92 NAL=2 Slice:P Poc:34  I:1782 P:1097 SKIP:65321 size=28914 bytes
frame=   71 fps=9.4 q=28.0 size=     256kB time=00:00:00.70 bitrate=2960.9kbits/s speed=0.0941x    [libx264 @ 00000277e204b7c0] frame=  18 QP=8.84 NAL=2 Slice:P Poc:36  I:182  P:159  SKIP:67859 size=918 bytes
[libx264 @ 00000277e204b7c0] frame=  19 QP=18.82 NAL=2 Slice:P Poc:38  I:2436 P:638  SKIP:65126 size=27370 bytes
[libx264 @ 00000277e204b7c0] frame=  20 QP=10.60 NAL=2 Slice:P Poc:40  I:126  P:109  SKIP:67965 size=649 bytes
[libx264 @ 00000277e204b7c0] frame=  21 QP=17.20 NAL=2 Slice:P Poc:42  I:1147 P:436  SKIP:66617 size=15733 bytes
[libx264 @ 00000277e204b7c0] frame=  22 QP=12.92 NAL=2 Slice:P Poc:44  I:45   P:35   SKIP:68120 size=276 bytes
[out_0_0 @ 00000277dd879a80] EOF on sink link out_0_0:default.
No more output streams to write to, finishing.
[libx264 @ 00000277e204b7c0] frame=  23 QP=19.78 NAL=2 Slice:P Poc:46  I:707  P:438  SKIP:67055 size=14358 bytes
[libx264 @ 00000277e204b7c0] frame=  24 QP=9.96 NAL=2 Slice:P Poc:48  I:59   P:45   SKIP:68096 size=381 bytes
[libx264 @ 00000277e204b7c0] frame=  25 QP=18.30 NAL=2 Slice:P Poc:50  I:574  P:621  SKIP:67005 size=13741 bytes
[libx264 @ 00000277e204b7c0] frame=  26 QP=12.21 NAL=2 Slice:P Poc:52  I:52   P:50   SKIP:68098 size=354 bytes
[libx264 @ 00000277e204b7c0] frame=  27 QP=19.42 NAL=2 Slice:P Poc:54  I:807  P:482  SKIP:66911 size=15080 bytes
[libx264 @ 00000277e204b7c0] frame=  28 QP=10.70 NAL=2 Slice:P Poc:56  I:52   P:43   SKIP:68105 size=316 bytes
[libx264 @ 00000277e204b7c0] frame=  29 QP=19.49 NAL=2 Slice:P Poc:58  I:628  P:504  SKIP:67068 size=13098 bytes
[libx264 @ 00000277e204b7c0] frame=  30 QP=12.33 NAL=2 Slice:P Poc:60  I:58   P:92   SKIP:68050 size=453 bytes
[libx264 @ 00000277e204b7c0] frame=  31 QP=15.95 NAL=2 Slice:P Poc:62  I:699  P:425  SKIP:67076 size=13044 bytes
[libx264 @ 00000277e204b7c0] frame=  32 QP=8.52 NAL=2 Slice:P Poc:64  I:46   P:29   SKIP:68125 size=246 bytes
[libx264 @ 00000277e204b7c0] frame=  33 QP=19.23 NAL=2 Slice:P Poc:66  I:573  P:445  SKIP:67182 size=13009 bytes
[libx264 @ 00000277e204b7c0] frame=  34 QP=10.38 NAL=2 Slice:P Poc:68  I:50   P:41   SKIP:68109 size=279 bytes
[libx264 @ 00000277e204b7c0] frame=  35 QP=19.07 NAL=2 Slice:P Poc:70  I:564  P:476  SKIP:67160 size=13296 bytes
[libx264 @ 00000277e204b7c0] frame=  36 QP=13.09 NAL=2 Slice:P Poc:72  I:47   P:45   SKIP:68108 size=377 bytes
[libx264 @ 00000277e204b7c0] frame=  37 QP=19.26 NAL=2 Slice:P Poc:74  I:607  P:518  SKIP:67075 size=14176 bytes
[libx264 @ 00000277e204b7c0] frame=  38 QP=9.07 NAL=2 Slice:P Poc:76  I:54   P:30   SKIP:68116 size=307 bytes
[libx264 @ 00000277e204b7c0] frame=  39 QP=19.67 NAL=2 Slice:P Poc:78  I:532  P:524  SKIP:67144 size=13658 bytes
[libx264 @ 00000277e204b7c0] frame=  40 QP=9.32 NAL=2 Slice:P Poc:80  I:56   P:42   SKIP:68102 size=326 bytes
[libx264 @ 00000277e204b7c0] frame=  41 QP=21.01 NAL=2 Slice:P Poc:82  I:761  P:438  SKIP:67001 size=13977 bytes
[libx264 @ 00000277e204b7c0] frame=  42 QP=9.98 NAL=2 Slice:P Poc:84  I:42   P:41   SKIP:68117 size=274 bytes
[libx264 @ 00000277e204b7c0] frame=  43 QP=21.42 NAL=2 Slice:P Poc:86  I:637  P:495  SKIP:67068 size=14163 bytes
[libx264 @ 00000277e204b7c0] frame=  44 QP=8.37 NAL=2 Slice:P Poc:88  I:39   P:38   SKIP:68123 size=263 bytes
[libx264 @ 00000277e204b7c0] frame=  45 QP=18.48 NAL=2 Slice:P Poc:90  I:560  P:551  SKIP:67089 size=12230 bytes
[libx264 @ 00000277e204b7c0] frame=  46 QP=10.06 NAL=2 Slice:P Poc:92  I:54   P:38   SKIP:68108 size=315 bytes
[libx264 @ 00000277e204b7c0] frame=  47 QP=20.16 NAL=2 Slice:P Poc:94  I:602  P:477  SKIP:67121 size=11988 bytes
[libx264 @ 00000277e204b7c0] frame=  48 QP=11.01 NAL=2 Slice:P Poc:96  I:35   P:45   SKIP:68120 size=284 bytes
[libx264 @ 00000277e204b7c0] frame=  49 QP=18.69 NAL=2 Slice:P Poc:98  I:749  P:379  SKIP:67072 size=13843 bytes
[libx264 @ 00000277e204b7c0] frame=  50 QP=10.49 NAL=2 Slice:P Poc:100 I:29   P:85   SKIP:68086 size=321 bytes
[libx264 @ 00000277e204b7c0] frame=  51 QP=18.15 NAL=2 Slice:P Poc:102 I:884  P:371  SKIP:66945 size=15451 bytes
[libx264 @ 00000277e204b7c0] frame=  52 QP=18.29 NAL=2 Slice:P Poc:104 I:39   P:93   SKIP:68068 size=323 bytes
[libx264 @ 00000277e204b7c0] frame=  53 QP=17.37 NAL=2 Slice:P Poc:106 I:1370 P:329  SKIP:66501 size=21712 bytes
[libx264 @ 00000277e204b7c0] frame=  54 QP=10.52 NAL=2 Slice:P Poc:108 I:68   P:151  SKIP:67981 size=488 bytes
[libx264 @ 00000277e204b7c0] frame=  55 QP=14.37 NAL=2 Slice:P Poc:110 I:1736 P:453  SKIP:66011 size=24045 bytes
[libx264 @ 00000277e204b7c0] frame=  56 QP=12.60 NAL=2 Slice:P Poc:112 I:72   P:123  SKIP:68005 size=486 bytes
[libx264 @ 00000277e204b7c0] frame=  57 QP=12.06 NAL=2 Slice:P Poc:114 I:1360 P:199  SKIP:66641 size=11382 bytes
[libx264 @ 00000277e204b7c0] frame=  58 QP=10.84 NAL=2 Slice:P Poc:116 I:36   P:35   SKIP:68129 size=204 bytes
[libx264 @ 00000277e204b7c0] frame=  59 QP=9.99 NAL=2 Slice:P Poc:118 I:2    P:0    SKIP:68198 size=22 bytes
[libx264 @ 00000277e204b7c0] frame=  60 QP=14.71 NAL=2 Slice:P Poc:120 I:501  P:72   SKIP:67627 size=4592 bytes
[libx264 @ 00000277e204b7c0] frame=  61 QP=16.73 NAL=2 Slice:P Poc:122 I:151  P:114  SKIP:67935 size=3238 bytes
[libx264 @ 00000277e204b7c0] frame=  62 QP=17.52 NAL=2 Slice:P Poc:124 I:108  P:142  SKIP:67950 size=2966 bytes
[libx264 @ 00000277e204b7c0] frame=  63 QP=14.41 NAL=2 Slice:P Poc:126 I:146  P:131  SKIP:67923 size=3750 bytes
[libx264 @ 00000277e204b7c0] frame=  64 QP=16.89 NAL=2 Slice:P Poc:128 I:113  P:125  SKIP:67962 size=1814 bytes
[libx264 @ 00000277e204b7c0] frame=  65 QP=13.33 NAL=2 Slice:P Poc:130 I:150  P:61   SKIP:67989 size=2102 bytes
[libx264 @ 00000277e204b7c0] frame=  66 QP=14.59 NAL=2 Slice:P Poc:132 I:176  P:41   SKIP:67983 size=3906 bytes
[libx264 @ 00000277e204b7c0] frame=  67 QP=14.90 NAL=2 Slice:P Poc:134 I:141  P:60   SKIP:67999 size=2087 bytes
[libx264 @ 00000277e204b7c0] frame=  68 QP=14.62 NAL=2 Slice:P Poc:136 I:82   P:118  SKIP:68000 size=1571 bytes
[libx264 @ 00000277e204b7c0] frame=  69 QP=12.33 NAL=2 Slice:P Poc:138 I:110  P:7    SKIP:68083 size=2728 bytes
[libx264 @ 00000277e204b7c0] frame=  70 QP=11.00 NAL=2 Slice:P Poc:140 I:10   P:3    SKIP:68187 size=51 bytes
[libx264 @ 00000277e204b7c0] frame=  71 QP=11.00 NAL=2 Slice:P Poc:142 I:0    P:0    SKIP:68200 size=13 bytes
[libx264 @ 00000277e204b7c0] frame=  72 QP=11.00 NAL=2 Slice:P Poc:144 I:56   P:0    SKIP:68144 size=135 bytes
[libx264 @ 00000277e204b7c0] frame=  73 QP=11.00 NAL=2 Slice:P Poc:146 I:0    P:0    SKIP:68200 size=13 bytes
[libx264 @ 00000277e204b7c0] frame=  74 QP=12.00 NAL=2 Slice:P Poc:148 I:0    P:0    SKIP:68200 size=13 bytes
[libx264 @ 00000277e204b7c0] frame=  75 QP=13.00 NAL=2 Slice:P Poc:150 I:0    P:0    SKIP:68200 size=13 bytes
frame=   76 fps=8.2 q=-1.0 Lsize=     595kB time=00:00:03.12 bitrate=1560.2kbits/s speed=0.336x    
[AVIOContext @ 00000277dd80b440] Statistics: 0 seeks, 14 writeouts
video:594kB audio:0kB subtitle:0kB other streams:0kB global headers:0kB muxing overhead: 0.187559%
Input file #0 (H:/Personal Repos/DGM2620/frame%04d.png):
  Input stream #0:0 (video): 76 packets read (30312656 bytes); 76 frames decoded; 
  Total: 76 packets (30312656 bytes) demuxed
Output file #0 (H:/Personal Repos/DGM2620/Fire.mp4):
  Output stream #0:0 (video): 76 frames encoded; 76 packets muxed (608341 bytes); 
  Total: 76 packets (608341 bytes) muxed
76 frames successfully decoded, 0 decoding errors
[AVIOContext @ 00000277e204c900] Statistics: 2 seeks, 6 writeouts
[libx264 @ 00000277e204b7c0] frame I:1     Avg QP:10.22  size: 51242
[libx264 @ 00000277e204b7c0] frame P:75    Avg QP:14.65  size:  7420
[libx264 @ 00000277e204b7c0] mb I  I16..4: 100.0%  0.0%  0.0%
[libx264 @ 00000277e204b7c0] mb P  I16..4:  0.5%  0.0%  0.3%  P16..4:  0.2%  0.1%  0.0%  0.0%  0.0%    skip:98.9%
[libx264 @ 00000277e204b7c0] coded y,uvDC,uvAC intra: 7.4% 0.0% 0.0% inter: 0.1% 0.0% 0.0%
[libx264 @ 00000277e204b7c0] i16 v,h,dc,p: 97%  2%  1%  0%
[libx264 @ 00000277e204b7c0] i4 v,h,dc,ddl,ddr,vr,hd,vl,hu: 25% 17% 36%  5%  2%  4%  2%  4%  4%
[libx264 @ 00000277e204b7c0] i8c dc,h,v,p: 100%  0%  0%  0%
[libx264 @ 00000277e204b7c0] ref P L0: 62.3% 20.4% 17.3%
[libx264 @ 00000277e204b7c0] kb/s:1535.27
